<svg width="50" height="44" viewBox="0 0 50 44" fill="none" xmlns="http://www.w3.org/2000/svg">
<g clip-path="url(#clip0_6_75)">
<path d="M21.4 11.8V32.2M35.2 19H14.8M14.2 18.88C14.2 16.192 14.2 14.848 14.7232 13.8208C15.1834 12.9177 15.9177 12.1834 16.8208 11.7232C17.848 11.2 19.192 11.2 21.88 11.2H28.12C30.808 11.2 32.152 11.2 33.1792 11.7232C34.0824 12.1834 34.8166 12.9177 35.2768 13.8208C35.8 14.848 35.8 16.192 35.8 18.88V25.12C35.8 27.808 35.8 29.152 35.2768 30.1792C34.8166 31.0824 34.0824 31.8166 33.1792 32.2768C32.152 32.8 30.808 32.8 28.12 32.8H21.88C19.192 32.8 17.848 32.8 16.8208 32.2768C15.9177 31.8166 15.1834 31.0824 14.7232 30.1792C14.2 29.152 14.2 27.808 14.2 25.12V18.88Z" stroke="#CCCCCC" stroke-width="1.5" stroke-linecap="round" stroke-linejoin="round"/>
</g>
<defs>
<clipPath id="clip0_6_75">
<rect width="24" height="24" fill="white" transform="translate(13 10)"/>
</clipPath>
</defs>
</svg>
