<svg width="50" height="44" viewBox="0 0 50 44" fill="none" xmlns="http://www.w3.org/2000/svg">
<g clip-path="url(#clip0_6_74)">
<path d="M13.8 33.2H13V34H13.8V33.2ZM23.4 18.8L24.04 18.32C23.9632 18.2177 23.863 18.1353 23.7477 18.0797C23.6325 18.0241 23.5056 17.997 23.3777 18.0006C23.2498 18.0042 23.1246 18.0384 23.0127 18.1004C22.9008 18.1624 22.8053 18.2503 22.7344 18.3568L23.4 18.8ZM28.2 25.2L27.56 25.68C27.6355 25.7806 27.7337 25.862 27.8466 25.9175C27.9595 25.973 28.0839 26.0012 28.2097 25.9996C28.3354 25.998 28.4591 25.9668 28.5706 25.9085C28.682 25.8502 28.7782 25.7664 28.8512 25.664L28.2 25.2ZM13 10V33.2H14.6V10H13ZM13.8 34H37V32.4H13.8V34ZM17.6656 28.8432L24.0656 19.2432L22.7344 18.3568L16.3344 27.9568L17.6656 28.8432ZM22.76 19.28L27.56 25.68L28.84 24.72L24.04 18.32L22.76 19.28ZM28.8512 25.664L36.8512 14.464L35.5488 13.536L27.5488 24.736L28.8512 25.664Z" fill="#CCCCCC"/>
</g>
<defs>
<clipPath id="clip0_6_74">
<rect width="24" height="24" fill="white" transform="translate(13 10)"/>
</clipPath>
</defs>
</svg>
