<svg width="50" height="44" viewBox="0 0 50 44" fill="none" xmlns="http://www.w3.org/2000/svg">
<g clip-path="url(#clip0_6_73)">
<path d="M36.25 18.3125C36.3875 18.3125 36.5 18.2 36.5 18.0625V16.1875C36.5 16.05 36.3875 15.9375 36.25 15.9375H31.125V10.75C31.125 10.6125 31.0125 10.5 30.875 10.5H28.875C28.7375 10.5 28.625 10.6125 28.625 10.75V15.9375H21.5V10.75C21.5 10.6125 21.3875 10.5 21.25 10.5H19.25C19.1125 10.5 19 10.6125 19 10.75V15.9375H13.75C13.6125 15.9375 13.5 16.05 13.5 16.1875V18.0625C13.5 18.2 13.6125 18.3125 13.75 18.3125H19V25.6875H13.75C13.6125 25.6875 13.5 25.8 13.5 25.9375V27.8125C13.5 27.95 13.6125 28.0625 13.75 28.0625H19V33.25C19 33.3875 19.1125 33.5 19.25 33.5H21.25C21.3875 33.5 21.5 33.3875 21.5 33.25V28.0625H28.625V33.25C28.625 33.3875 28.7375 33.5 28.875 33.5H30.875C31.0125 33.5 31.125 33.3875 31.125 33.25V28.0625H36.25C36.3875 28.0625 36.5 27.95 36.5 27.8125V25.9375C36.5 25.8 36.3875 25.6875 36.25 25.6875H31.125V18.3125H36.25ZM28.625 25.6875H21.5V18.3125H28.625V25.6875Z" fill="#CCCCCC"/>
</g>
<defs>
<clipPath id="clip0_6_73">
<rect width="24" height="24" fill="white" transform="translate(13 10)"/>
</clipPath>
</defs>
</svg>
