<svg width="24" height="24" viewBox="0 0 24 24" fill="none" xmlns="http://www.w3.org/2000/svg">
<path d="M3.27274 22.9091H20.7273" stroke="#CCCCCC" stroke-width="1.5" stroke-linecap="round"/>
<path d="M18.9131 7.75748L19.7225 6.95021C20.0413 6.63152 20.2941 6.25318 20.4667 5.83677C20.6392 5.42037 20.728 4.97406 20.7281 4.52332C20.7281 4.07258 20.6394 3.62625 20.467 3.20981C20.2945 2.79336 20.0418 2.41496 19.7231 2.09621C19.4044 1.77745 19.026 1.52459 18.6096 1.35205C18.1932 1.17952 17.7469 1.09069 17.2962 1.09064C16.8454 1.09059 16.3991 1.17932 15.9827 1.35176C15.5662 1.5242 15.1878 1.77698 14.8691 2.09566L14.0596 2.90512C14.0596 2.90512 14.1611 4.62439 15.6774 6.14075C17.1938 7.65712 18.9131 7.75857 18.9131 7.75857L11.4763 15.1953C10.9723 15.6993 10.7214 15.9502 10.4433 16.1673C10.1153 16.4233 9.76289 16.6411 9.38616 16.8208C9.06871 16.9724 8.73053 17.0848 8.05525 17.3095L5.19053 18.2651M14.0596 2.90402L6.62289 10.3418C6.11889 10.8458 5.86689 11.0968 5.65089 11.3749C5.39501 11.7023 5.17588 12.0568 4.99743 12.432C4.8458 12.7495 4.73343 13.0877 4.50762 13.7629L3.55307 16.6277M3.55307 16.6277L3.32071 17.3269C3.26624 17.49 3.25828 17.665 3.29772 17.8323C3.33716 17.9996 3.42244 18.1526 3.54399 18.2742C3.66555 18.3957 3.81857 18.481 3.98589 18.5205C4.15321 18.5599 4.32821 18.5519 4.49125 18.4975L5.19053 18.2651M3.55307 16.6277L5.19053 18.2651" stroke="#CCCCCC" stroke-width="1.5"/>
</svg>
