<svg width="50" height="44" viewBox="0 0 50 44" fill="none" xmlns="http://www.w3.org/2000/svg">
<path d="M16.4298 10.563C16.225 10.6804 16.0594 10.8556 15.9536 11.0667C15.8479 11.2777 15.8067 11.5153 15.8354 11.7496L17.6488 31.2105C17.7647 32.1554 18.8822 32.5958 19.6113 31.9838L23.0229 29.1206L24.7389 32.093C25.7258 33.802 27.7077 33.9818 29.4165 32.9949C31.126 32.008 31.9612 30.202 30.9743 28.493L29.2643 25.5311L33.3837 24.0323C34.2782 23.7066 34.4555 22.5191 33.6952 21.9462L17.7482 10.6451C17.5605 10.504 17.3356 10.421 17.1013 10.4064C16.867 10.3918 16.6335 10.4463 16.4298 10.563ZM18.5606 14.261L30.485 22.533L25.7538 24.2546L25.7759 24.2889L28.8959 29.693C29.2386 30.2865 28.8105 30.5738 28.2167 30.9165C27.623 31.2592 27.1602 31.4865 26.8175 30.893L23.6975 25.4889L23.6728 25.4414L19.7622 28.7238L18.5606 14.261Z" fill="#CCCCCC"/>
</svg>
