<svg width="50" height="44" viewBox="0 0 50 44" fill="none" xmlns="http://www.w3.org/2000/svg">
<path d="M28 12.5714C28 12.9124 27.8645 13.2394 27.6234 13.4806C27.3823 13.7217 27.0553 13.8571 26.7143 13.8571H23.2857C22.9447 13.8571 22.6177 13.7217 22.3766 13.4806C22.1355 13.2394 22 12.9124 22 12.5714C22 12.2304 22.1355 11.9034 22.3766 11.6623C22.6177 11.4212 22.9447 11.2857 23.2857 11.2857H26.7143C27.0553 11.2857 27.3823 11.4212 27.6234 11.6623C27.8645 11.9034 28 12.2304 28 12.5714ZM26.7143 30.1428H23.2857C22.9447 30.1428 22.6177 30.2783 22.3766 30.5194C22.1355 30.7605 22 31.0876 22 31.4286C22 31.7696 22.1355 32.0966 22.3766 32.3377C22.6177 32.5788 22.9447 32.7143 23.2857 32.7143H26.7143C27.0553 32.7143 27.3823 32.5788 27.6234 32.3377C27.8645 32.0966 28 31.7696 28 31.4286C28 31.0876 27.8645 30.7605 27.6234 30.5194C27.3823 30.2783 27.0553 30.1428 26.7143 30.1428ZM33.5714 11.2857H31C30.659 11.2857 30.332 11.4212 30.0909 11.6623C29.8497 11.9034 29.7143 12.2304 29.7143 12.5714C29.7143 12.9124 29.8497 13.2394 30.0909 13.4806C30.332 13.7217 30.659 13.8571 31 13.8571H33.1428V16C33.1428 16.341 33.2783 16.668 33.5194 16.9091C33.7605 17.1502 34.0876 17.2857 34.4286 17.2857C34.7696 17.2857 35.0966 17.1502 35.3377 16.9091C35.5788 16.668 35.7143 16.341 35.7143 16V13.4286C35.7143 12.8602 35.4885 12.3152 35.0867 11.9133C34.6848 11.5115 34.1397 11.2857 33.5714 11.2857ZM34.4286 19C34.0876 19 33.7605 19.1355 33.5194 19.3766C33.2783 19.6177 33.1428 19.9447 33.1428 20.2857V23.7143C33.1428 24.0553 33.2783 24.3823 33.5194 24.6234C33.7605 24.8645 34.0876 25 34.4286 25C34.7696 25 35.0966 24.8645 35.3377 24.6234C35.5788 24.3823 35.7143 24.0553 35.7143 23.7143V20.2857C35.7143 19.9447 35.5788 19.6177 35.3377 19.3766C35.0966 19.1355 34.7696 19 34.4286 19ZM34.4286 26.7143C34.0876 26.7143 33.7605 26.8497 33.5194 27.0909C33.2783 27.332 33.1428 27.659 33.1428 28V30.1428H31C30.659 30.1428 30.332 30.2783 30.0909 30.5194C29.8497 30.7605 29.7143 31.0876 29.7143 31.4286C29.7143 31.7696 29.8497 32.0966 30.0909 32.3377C30.332 32.5788 30.659 32.7143 31 32.7143H33.5714C34.1397 32.7143 34.6848 32.4885 35.0867 32.0867C35.4885 31.6848 35.7143 31.1397 35.7143 30.5714V28C35.7143 27.659 35.5788 27.332 35.3377 27.0909C35.0966 26.8497 34.7696 26.7143 34.4286 26.7143ZM15.5714 25C15.9124 25 16.2394 24.8645 16.4806 24.6234C16.7217 24.3823 16.8571 24.0553 16.8571 23.7143V20.2857C16.8571 19.9447 16.7217 19.6177 16.4806 19.3766C16.2394 19.1355 15.9124 19 15.5714 19C15.2304 19 14.9034 19.1355 14.6623 19.3766C14.4212 19.6177 14.2857 19.9447 14.2857 20.2857V23.7143C14.2857 24.0553 14.4212 24.3823 14.6623 24.6234C14.9034 24.8645 15.2304 25 15.5714 25ZM19 30.1428H16.8571V28C16.8571 27.659 16.7217 27.332 16.4806 27.0909C16.2394 26.8497 15.9124 26.7143 15.5714 26.7143C15.2304 26.7143 14.9034 26.8497 14.6623 27.0909C14.4212 27.332 14.2857 27.659 14.2857 28V30.5714C14.2857 31.1397 14.5115 31.6848 14.9133 32.0867C15.3152 32.4885 15.8602 32.7143 16.4286 32.7143H19C19.341 32.7143 19.668 32.5788 19.9091 32.3377C20.1502 32.0966 20.2857 31.7696 20.2857 31.4286C20.2857 31.0876 20.1502 30.7605 19.9091 30.5194C19.668 30.2783 19.341 30.1428 19 30.1428ZM19 11.2857H16.4286C15.8602 11.2857 15.3152 11.5115 14.9133 11.9133C14.5115 12.3152 14.2857 12.8602 14.2857 13.4286V16C14.2857 16.341 14.4212 16.668 14.6623 16.9091C14.9034 17.1502 15.2304 17.2857 15.5714 17.2857C15.9124 17.2857 16.2394 17.1502 16.4806 16.9091C16.7217 16.668 16.8571 16.341 16.8571 16V13.8571H19C19.341 13.8571 19.668 13.7217 19.9091 13.4806C20.1502 13.2394 20.2857 12.9124 20.2857 12.5714C20.2857 12.2304 20.1502 11.9034 19.9091 11.6623C19.668 11.4212 19.341 11.2857 19 11.2857Z" fill="#CCCCCC"/>
</svg>
