<svg width="50" height="44" viewBox="0 0 50 44" fill="none" xmlns="http://www.w3.org/2000/svg">
<g clip-path="url(#clip0_6_83)">
<path d="M22.5324 20.6691L18.2876 25.0076C17.0113 26.3123 16.3731 26.9647 16.2869 27.76C16.268 27.9287 16.268 28.0974 16.2869 28.2662C16.3742 29.0625 17.0113 29.7138 18.2876 31.0185L18.4502 31.1843C19.1309 31.8814 19.4724 32.2294 19.8793 32.4629C20.1178 32.5996 20.3684 32.7054 20.6309 32.7803C21.0815 32.9091 21.5647 32.9091 22.5324 32.9091C23.4989 32.9091 23.9833 32.9091 24.4338 32.7803C24.6964 32.7047 24.9465 32.5992 25.1844 32.464C25.5924 32.2294 25.9327 31.8814 26.6135 31.1843L29.7171 28.0131M22.5324 20.6691L26.44 16.6796C27.952 15.136 28.7091 14.3636 29.6505 14.3636C30.592 14.3636 31.3469 15.136 32.8589 16.6818L33.6695 17.5109C35.1629 19.036 35.9091 19.7996 35.9091 20.7454C35.9091 21.6912 35.1618 22.4538 33.6684 23.9789L29.7171 28.0131M22.5324 20.6691L29.7171 28.0131M17.9091 11.0909L18.1905 11.8512C18.5593 12.8483 18.7436 13.3469 19.1069 13.7102C19.4713 14.0745 19.9698 14.2589 20.9669 14.6276L21.7273 14.9091L20.9669 15.1905C19.9698 15.5592 19.4713 15.7436 19.108 16.1069C18.7436 16.4712 18.5593 16.9698 18.1905 17.9669L17.9091 18.7272L17.6276 17.9669C17.2589 16.9698 17.0745 16.4712 16.7113 16.108C16.3469 15.7436 15.8484 15.5592 14.8513 15.1905L14.0909 14.9091L14.8513 14.6276C15.8484 14.2589 16.3469 14.0745 16.7102 13.7112C17.0745 13.3469 17.2589 12.8483 17.6276 11.8512L17.9091 11.0909Z" stroke="#CCCCCC" stroke-width="1.5" stroke-linecap="round" stroke-linejoin="round"/>
</g>
<defs>
<clipPath id="clip0_6_83">
<rect width="24" height="24" fill="white" transform="translate(13 10)"/>
</clipPath>
</defs>
</svg>
