<svg width="50" height="44" viewBox="0 0 50 44" fill="none" xmlns="http://www.w3.org/2000/svg">
<path d="M21.0119 32.119L13.6905 24.7976C13.4921 24.5992 13.3433 24.3809 13.2441 24.1428C13.1448 23.9048 13.0952 23.6567 13.0952 23.3988C13.0952 23.1409 13.1448 22.8928 13.2441 22.6548C13.3433 22.4167 13.4921 22.1984 13.6905 22L20.5357 15.1845L18.3036 12.9524C18.0456 12.6944 17.9119 12.3869 17.9024 12.0298C17.8929 11.6726 18.0167 11.3552 18.2738 11.0774C18.531 10.7996 18.8484 10.6607 19.2262 10.6607C19.604 10.6607 19.9314 10.7996 20.2083 11.0774L31.131 22C31.3294 22.1984 31.4734 22.4167 31.5631 22.6548C31.6528 22.8928 31.6972 23.1409 31.6964 23.3988C31.6956 23.6567 31.6512 23.9048 31.5631 24.1428C31.475 24.3809 31.331 24.5992 31.131 24.7976L23.8095 32.119C23.6111 32.3175 23.3929 32.4663 23.1548 32.5655C22.9167 32.6647 22.6687 32.7143 22.4107 32.7143C22.1528 32.7143 21.9048 32.6647 21.6667 32.5655C21.4286 32.4663 21.2103 32.3175 21.0119 32.119ZM22.4107 17.0595L16.0417 23.4286H28.7798L22.4107 17.0595ZM34.2857 32.7143C33.5714 32.7143 32.9663 32.4611 32.4702 31.9548C31.9742 31.4484 31.7262 30.8286 31.7262 30.0952C31.7262 29.5595 31.8603 29.0536 32.1286 28.5774C32.3968 28.1012 32.6992 27.6349 33.0357 27.1786L33.6012 26.4643C33.7798 26.246 34.0131 26.1321 34.3012 26.1226C34.5893 26.1131 34.8222 26.2171 35 26.4345L35.5952 27.1786C35.9127 27.6349 36.2103 28.1012 36.4881 28.5774C36.7659 29.0536 36.9048 29.5595 36.9048 30.0952C36.9048 30.8294 36.6468 31.4496 36.131 31.9559C35.6151 32.4623 35 32.7151 34.2857 32.7143Z" fill="#CCCCCC"/>
</svg>
