<svg width="50" height="44" viewBox="0 0 50 44" fill="none" xmlns="http://www.w3.org/2000/svg">
<g clip-path="url(#clip0_6_77)">
<path d="M31 10H19C17.4087 10 15.8826 10.6321 14.7574 11.7574C13.6321 12.8826 13 14.4087 13 16V28C13 29.5913 13.6321 31.1174 14.7574 32.2426C15.8826 33.3679 17.4087 34 19 34H31C32.5913 34 34.1174 33.3679 35.2426 32.2426C36.3679 31.1174 37 29.5913 37 28V16C37 14.4087 36.3679 12.8826 35.2426 11.7574C34.1174 10.6321 32.5913 10 31 10ZM34.6 28C34.6 28.9548 34.2207 29.8705 33.5456 30.5456C32.8705 31.2207 31.9548 31.6 31 31.6H19C18.0452 31.6 17.1295 31.2207 16.4544 30.5456C15.7793 29.8705 15.4 28.9548 15.4 28V16C15.4 15.0452 15.7793 14.1295 16.4544 13.4544C17.1295 12.7793 18.0452 12.4 19 12.4H31C31.9548 12.4 32.8705 12.7793 33.5456 13.4544C34.2207 14.1295 34.6 15.0452 34.6 16V28Z" fill="#CCCCCC"/>
</g>
<defs>
<clipPath id="clip0_6_77">
<rect width="24" height="24" fill="white" transform="translate(13 10)"/>
</clipPath>
</defs>
</svg>
