<svg width="50" height="44" viewBox="0 0 50 44" fill="none" xmlns="http://www.w3.org/2000/svg">
<g clip-path="url(#clip0_6_76)">
<path d="M35.106 10H14.895C14.3924 10 13.9104 10.1997 13.555 10.5551C13.1996 10.9104 13 11.3924 13 11.895V16.819L12.999 16.872C12.999 17.3746 13.1986 17.8566 13.554 18.212C13.9094 18.5674 14.3914 18.767 14.894 18.767C15.3966 18.767 15.8786 18.5674 16.234 18.212C16.5893 17.8566 16.789 17.3746 16.789 16.872L16.788 16.816V16.819V13.789H23.103V30.211H20.178C19.6861 30.2267 19.2195 30.4332 18.877 30.7866C18.5345 31.1401 18.3428 31.6129 18.3426 32.1051C18.3423 32.5972 18.5334 33.0702 18.8756 33.4241C19.2177 33.7779 19.6841 33.9848 20.176 34.001H29.821C30.3129 33.9853 30.7795 33.7789 31.122 33.4254C31.4645 33.072 31.6562 32.5992 31.6564 32.107C31.6567 31.6148 31.4655 31.1418 31.1234 30.788C30.7812 30.4342 30.3149 30.2273 29.823 30.211H26.894V13.789H33.209V16.819C33.2247 17.311 33.4311 17.7775 33.7846 18.12C34.138 18.4626 34.6108 18.6542 35.103 18.6545C35.5952 18.6547 36.0682 18.4636 36.422 18.1214C36.7759 17.7793 36.9828 17.3129 36.999 16.821V11.894C36.999 11.3916 36.7995 10.9098 36.4443 10.5544C36.0891 10.1991 35.6074 9.99929 35.105 9.99902L35.106 10Z" fill="#CCCCCC"/>
</g>
<defs>
<clipPath id="clip0_6_76">
<rect width="24" height="24" fill="white" transform="translate(13 10)"/>
</clipPath>
</defs>
</svg>
