<svg width="50" height="50" viewBox="0 0 50 50" fill="none" xmlns="http://www.w3.org/2000/svg">
<g clip-path="url(#clip0_6_22)">
<path d="M25 31.6667L23 33.6667C22.1159 34.5506 20.9169 35.0471 19.6667 35.0471C18.4165 35.0471 17.2175 34.5506 16.3333 33.6667C15.4494 32.7825 14.9529 31.5835 14.9529 30.3333C14.9529 29.0831 15.4494 27.8841 16.3333 27L20.3333 23C21.2175 22.1161 22.4165 21.6195 23.6667 21.6195C24.9169 21.6195 26.1159 22.1161 27 23" stroke="#CCCCCC" stroke-width="2" stroke-linecap="round"/>
<path d="M25 18.3333L27 16.3333C27.8841 15.4494 29.0831 14.9529 30.3333 14.9529C31.5835 14.9529 32.7825 15.4494 33.6667 16.3333C34.5506 17.2175 35.0471 18.4165 35.0471 19.6667C35.0471 20.9169 34.5506 22.1159 33.6667 23L29.6667 27C28.7825 27.8839 27.5835 28.3805 26.3333 28.3805C25.0831 28.3805 23.8841 27.8839 23 27" stroke="#CCCCCC" stroke-width="2" stroke-linecap="round"/>
</g>
<defs>
<clipPath id="clip0_6_22">
<rect width="24" height="24" fill="white" transform="translate(13 13)"/>
</clipPath>
</defs>
</svg>
