<svg width="50" height="50" viewBox="0 0 50 50" fill="none" xmlns="http://www.w3.org/2000/svg">
<path d="M31.5218 14.1304C30.0804 14.1304 28.698 14.703 27.6788 15.7222C26.6596 16.7415 26.087 18.1238 26.087 19.5652V22.8261H16.9565C16 22.8261 15.2174 23.6087 15.2174 24.5652V32.1739C15.2174 33.6087 16.3913 34.7826 17.8261 34.7826H27.8261C29.2609 34.7826 30.4348 33.6087 30.4348 32.1739V24.5652C30.4348 23.6087 29.6522 22.8261 28.6957 22.8261H28.2609V19.5652C28.2609 17.763 29.7196 16.3043 31.5218 16.3043C33.3239 16.3043 34.7826 17.763 34.7826 19.5652V22.8261C34.7826 23.1144 34.8971 23.3908 35.101 23.5947C35.3048 23.7985 35.5813 23.913 35.8696 23.913C36.1579 23.913 36.4343 23.7985 36.6382 23.5947C36.842 23.3908 36.9565 23.1144 36.9565 22.8261V19.5652C36.9565 18.8515 36.816 18.1448 36.5428 17.4854C36.2697 16.826 35.8694 16.2269 35.3647 15.7222C34.8601 15.2176 34.2609 14.8173 33.6016 14.5441C32.9422 14.271 32.2355 14.1304 31.5218 14.1304Z" fill="#CCCCCC"/>
</svg>
