<svg width="50" height="50" viewBox="0 0 50 50" fill="none" xmlns="http://www.w3.org/2000/svg">
<path fill-rule="evenodd" clip-rule="evenodd" d="M20.2 15.4C18.927 15.4 17.7061 15.9057 16.8059 16.8059C15.9057 17.7061 15.4 18.927 15.4 20.2C15.4 21.4731 15.9057 22.694 16.8059 23.5941C17.7061 24.4943 18.927 25 20.2 25C21.473 25 22.6939 24.4943 23.5941 23.5941C24.4943 22.694 25 21.4731 25 20.2C25 18.927 24.4943 17.7061 23.5941 16.8059C22.6939 15.9057 21.473 15.4 20.2 15.4ZM17.8 26.2C16.527 26.2 15.3061 26.7057 14.4059 27.6059C13.5057 28.5061 13 29.727 13 31V32.2C13 32.8365 13.2529 33.447 13.7029 33.8971C14.153 34.3472 14.7635 34.6 15.4 34.6H25C25.6365 34.6 26.247 34.3472 26.6971 33.8971C27.1471 33.447 27.4 32.8365 27.4 32.2V31C27.4 29.727 26.8943 28.5061 25.9941 27.6059C25.0939 26.7057 23.873 26.2 22.6 26.2H17.8ZM26.5 23.686C27.0736 22.654 27.4 21.466 27.4 20.2C27.4003 18.9801 27.0906 17.7802 26.5 16.7128C27.1814 16.0681 28.0367 15.6372 28.9604 15.4733C29.884 15.3094 30.8354 15.4197 31.697 15.7906C32.5586 16.1615 33.2927 16.7768 33.8084 17.5603C34.3242 18.3439 34.599 19.2614 34.599 20.1994C34.599 21.1375 34.3242 22.055 33.8084 22.8385C33.2927 23.6221 32.5586 24.2373 31.697 24.6082C30.8354 24.9792 29.884 25.0895 28.9604 24.9256C28.0367 24.7617 27.1814 24.3307 26.5 23.686ZM29.1592 34.6C29.5672 33.8944 29.8012 33.0748 29.8012 32.2V31C29.8034 29.2285 29.1503 27.5188 27.9676 26.2H32.2C33.473 26.2 34.6939 26.7057 35.5941 27.6059C36.4943 28.5061 37 29.727 37 31V32.2C37 32.8365 36.7471 33.447 36.2971 33.8971C35.847 34.3472 35.2365 34.6 34.6 34.6H29.1592Z" fill="#CCCCCC"/>
</svg>
