<svg width="50" height="50" viewBox="0 0 50 50" fill="none" xmlns="http://www.w3.org/2000/svg">
<g clip-path="url(#clip0_17_468)">
<path d="M25 35C25 35 32.5 27.8925 32.5 22.5C32.5 20.5109 31.7098 18.6032 30.3033 17.1967C28.8968 15.7902 26.9891 15 25 15C23.0109 15 21.1032 15.7902 19.6967 17.1967C18.2902 18.6032 17.5 20.5109 17.5 22.5C17.5 27.8925 25 35 25 35ZM25 26.25C24.0054 26.25 23.0516 25.8549 22.3483 25.1517C21.6451 24.4484 21.25 23.4946 21.25 22.5C21.25 21.5054 21.6451 20.5516 22.3483 19.8483C23.0516 19.1451 24.0054 18.75 25 18.75C25.9946 18.75 26.9484 19.1451 27.6517 19.8483C28.3549 20.5516 28.75 21.5054 28.75 22.5C28.75 23.4946 28.3549 24.4484 27.6517 25.1517C26.9484 25.8549 25.9946 26.25 25 26.25Z" fill="#CCCCCC"/>
</g>
<defs>
<clipPath id="clip0_17_468">
<rect width="20" height="20" fill="white" transform="translate(15 15)"/>
</clipPath>
</defs>
</svg>
