<svg width="50" height="50" viewBox="0 0 50 50" fill="none" xmlns="http://www.w3.org/2000/svg">
<g clip-path="url(#clip0_17_384)">
<path d="M28.0764 13H21.9236L21.2178 16.5313C20.6334 16.7932 20.0777 17.1149 19.5596 17.4913L16.1451 16.336L13.0698 21.664L15.7764 24.0422C15.711 24.6791 15.711 25.3209 15.7764 25.9578L13.0698 28.336L16.1462 33.664L19.5596 32.5098C20.0746 32.8829 20.6287 33.2058 21.2178 33.4687L21.9236 37H28.0764L28.7822 33.4687C29.3666 33.2068 29.9223 32.8851 30.4404 32.5087L33.8549 33.664L36.9313 28.336L34.2236 25.9578C34.289 25.3209 34.289 24.6791 34.2236 24.0422L36.9302 21.664L33.8538 16.336L30.4415 17.4902C29.9233 17.1142 29.3676 16.7928 28.7833 16.5313L28.0764 13ZM25 29.3636C23.8427 29.3636 22.7328 28.9039 21.9144 28.0856C21.0961 27.2672 20.6364 26.1573 20.6364 25C20.6364 23.8427 21.0961 22.7328 21.9144 21.9144C22.7328 21.0961 23.8427 20.6364 25 20.6364C26.1573 20.6364 27.2672 21.0961 28.0856 21.9144C28.9039 22.7328 29.3636 23.8427 29.3636 25C29.3636 26.1573 28.9039 27.2672 28.0856 28.0856C27.2672 28.9039 26.1573 29.3636 25 29.3636Z" fill="#CCCCCC"/>
</g>
<defs>
<clipPath id="clip0_17_384">
<rect width="24" height="24" fill="white" transform="translate(13 13)"/>
</clipPath>
</defs>
</svg>
