<svg width="50" height="50" viewBox="0 0 50 50" fill="none" xmlns="http://www.w3.org/2000/svg">
<g clip-path="url(#clip0_17_390)">
<g clip-path="url(#clip1_17_390)">
<path d="M22.6002 14.8936C22.3615 14.8936 22.1325 14.7988 21.9638 14.63C21.795 14.4612 21.7002 14.2323 21.7002 13.9936C21.7002 13.7549 21.795 13.526 21.9638 13.3572C22.1325 13.1884 22.3615 13.0936 22.6002 13.0936H26.8434C27.0821 13.0936 27.311 13.1884 27.4798 13.3572C27.6485 13.526 27.7434 13.7549 27.7434 13.9936C27.7434 14.2323 27.6485 14.4612 27.4798 14.63C27.311 14.7988 27.0821 14.8936 26.8434 14.8936H22.6002ZM18.4362 15.436C18.6047 15.6047 18.6994 15.8335 18.6994 16.072C18.6994 16.3105 18.6047 16.5392 18.4362 16.708L15.4362 19.708C15.2655 19.867 15.0399 19.9535 14.8067 19.9494C14.5736 19.9453 14.3511 19.8508 14.1862 19.6859C14.0213 19.521 13.9269 19.2986 13.9227 19.0654C13.9186 18.8323 14.0052 18.6066 14.1642 18.436L17.1642 15.436C17.3329 15.2675 17.5617 15.1728 17.8002 15.1728C18.0387 15.1728 18.2674 15.2675 18.4362 15.436Z" fill="#CCCCCC"/>
<path fill-rule="evenodd" clip-rule="evenodd" d="M25 16.672C22.2948 16.672 19.7004 17.7466 17.7876 19.6595C15.8747 21.5724 14.8 24.1668 14.8 26.872C14.8 29.5772 15.8747 32.1716 17.7876 34.0845C19.7004 35.9974 22.2948 37.072 25 37.072C27.7053 37.072 30.2997 35.9974 32.2125 34.0845C34.1254 32.1716 35.2 29.5772 35.2 26.872C35.2 24.1668 34.1254 21.5724 32.2125 19.6595C30.2997 17.7466 27.7053 16.672 25 16.672ZM30.988 21.1252C31.0757 21.0097 31.1186 20.8665 31.1088 20.7218C31.099 20.5772 31.0371 20.441 30.9347 20.3385C30.8323 20.2359 30.6962 20.1739 30.5516 20.1638C30.407 20.1538 30.2636 20.1965 30.148 20.284L26.338 23.2456L23.848 25.0252C23.6444 25.1703 23.4748 25.3581 23.3511 25.5754C23.2274 25.7928 23.1525 26.0345 23.1318 26.2837C23.111 26.5329 23.1448 26.7837 23.2308 27.0185C23.3168 27.2533 23.453 27.4666 23.6298 27.6434C23.8067 27.8203 24.0199 27.9564 24.2547 28.0424C24.4896 28.1285 24.7403 28.1623 24.9895 28.1415C25.2388 28.1207 25.4805 28.0459 25.6978 27.9222C25.9152 27.7985 26.1029 27.6289 26.248 27.4252L28.0264 24.934L30.988 21.1252Z" fill="#CCCCCC"/>
</g>
</g>
<defs>
<clipPath id="clip0_17_390">
<rect width="24" height="24" fill="white" transform="translate(13 13)"/>
</clipPath>
<clipPath id="clip1_17_390">
<rect width="24" height="24" fill="white" transform="translate(13 13)"/>
</clipPath>
</defs>
</svg>
